<svg xmlns="http://www.w3.org/2000/svg" viewBox="0 0 1043.34 232.21"><title>INTEGRAOBRARecurso 10</title><g id="Capa_2" data-name="Capa 2"><g id="Capa_1-2" data-name="Capa 1"><path d="M108.88,181.68a12.07,12.07,0,0,1-12,0L50,154.62h0L0,125.76v42.39a12,12,0,0,0,6,10.41l90.14,52a12,12,0,0,0,12,0l41.77-24.11V158Z" fill="#fff"/><path d="M204.32,64.07a12,12,0,0,0-6-10.42l-39.8-23L114.68,56l41.06,23.7a12,12,0,0,1,6,10.42V199.67l36.56-21.11a12,12,0,0,0,6-10.41Z" fill="#fff"/><path d="M44,90.1a12,12,0,0,1,6-10.42L96.85,52.63l.09-.05L146.7,23.85,108.17,1.61a12,12,0,0,0-12,0L6,53.65A12,12,0,0,0,0,64.07v48.05l44,25.39Z" fill="#fff"/><path d="M108.88,167.32l6.22-3.59V88.57c0-3.63-1.2-6.58-2.69-6.58H91.91c-1.48,0-2.69,3-2.69,6.58v74.35l7.63,4.4A12,12,0,0,0,108.88,167.32Z" fill="#fff"/><path d="M233.15,156.78V75.43H255.5v81.35Z" fill="#fff"/><path d="M291.82,116.79v40H269.47V75.43h17.42l32.65,41.36V75.43h22.35v81.35H324.13Z" fill="#fff"/><path d="M419.23,94.91H395.85v61.87H373.51V94.91H350V75.43h69.21Z" fill="#fff"/><path d="M485.34,137.3v19.48h-58V75.43h56.95V94.91h-34.6v11.46h29.56v18.1H449.71V137.3Z" fill="#fff"/><path d="M549.73,150a30.2,30.2,0,0,1-20.05,7.33,41.36,41.36,0,0,1-15.12-2.8,36,36,0,0,1-12.61-8.2,39.72,39.72,0,0,1-8.59-13.17,46.33,46.33,0,0,1-3.21-17.76,39.71,39.71,0,0,1,12-28.82A41.62,41.62,0,0,1,515.42,78a42.61,42.61,0,0,1,16.44-3.15,45.34,45.34,0,0,1,10.54,1.2,37.78,37.78,0,0,1,9.34,3.55,36.9,36.9,0,0,1,7.73,5.62,28.37,28.37,0,0,1,5.62,7.39l-16.62,12.71a18.75,18.75,0,0,0-7.22-7.73,19.27,19.27,0,0,0-10.19-2.92,16.66,16.66,0,0,0-7.34,1.6,17.26,17.26,0,0,0-5.73,4.47,21.52,21.52,0,0,0-3.78,6.82,28.18,28.18,0,0,0,0,17.36,20.3,20.3,0,0,0,3.84,6.7A17.22,17.22,0,0,0,524,136a18.52,18.52,0,0,0,7.68,1.54q9.74,0,17.19-8h-14.1v-16h33.46v43.31H549.73Z" fill="#fff"/><path d="M579.18,156.78V75.43h37.35a24.75,24.75,0,0,1,11,2.46,28.54,28.54,0,0,1,8.65,6.42,29.93,29.93,0,0,1,5.68,9,27.26,27.26,0,0,1,2.06,10.26,29,29,0,0,1-3.09,13.23,27,27,0,0,1-8.6,10l17.19,29.9H624.21l-14.32-25h-8.37v25Zm22.34-44.46h14.1a5,5,0,0,0,3.84-2.29,10.25,10.25,0,0,0,1.77-6.41q0-4.25-2.06-6.48A5.78,5.78,0,0,0,615,94.91H601.52Z" fill="#fff"/><path d="M677.6,75.43H698l28.19,81.35H703.5l-4.93-15.93H676.92l-4.82,15.93H649.3ZM695,126l-7.22-25.21L680.24,126Z" fill="#fff"/><path d="M766.29,157.47a39.07,39.07,0,0,1-16.84-3.55,41.58,41.58,0,0,1-13-9.34,42.4,42.4,0,0,1-8.37-13.24,41.06,41.06,0,0,1-3-15.35,40,40,0,0,1,3.09-15.47A41,41,0,0,1,736.9,87.4a42.26,42.26,0,0,1,13.18-9.05A40.68,40.68,0,0,1,766.75,75a39.22,39.22,0,0,1,16.84,3.55,41.23,41.23,0,0,1,12.95,9.4,42.2,42.2,0,0,1,8.31,13.29,41.59,41.59,0,0,1,2.92,15.24,39.39,39.39,0,0,1-3.1,15.41,41.57,41.57,0,0,1-8.59,13.06A42.3,42.3,0,0,1,783,154,40.11,40.11,0,0,1,766.29,157.47Zm-18.45-41.25a27.42,27.42,0,0,0,1.15,8,20.67,20.67,0,0,0,3.44,6.82,17.19,17.19,0,0,0,5.78,4.81,19.56,19.56,0,0,0,16.67-.05,17,17,0,0,0,5.79-4.93A21.09,21.09,0,0,0,784,123.9a29.09,29.09,0,0,0,1.09-7.91,27.8,27.8,0,0,0-1.14-8,19.67,19.67,0,0,0-3.5-6.76,17.6,17.6,0,0,0-5.84-4.7,17.92,17.92,0,0,0-8.2-1.78,17.68,17.68,0,0,0-8.3,1.84,17,17,0,0,0-5.79,4.87,20.61,20.61,0,0,0-3.38,6.87A28.5,28.5,0,0,0,747.84,116.22Z" fill="#fff"/><path d="M886.48,135.93a17.76,17.76,0,0,1-8.59,15.92,29.42,29.42,0,0,1-9.34,3.73,51.2,51.2,0,0,1-11.28,1.2h-40V75.43h47.21a16.06,16.06,0,0,1,7.67,1.83A19.38,19.38,0,0,1,878,82a21.93,21.93,0,0,1,3.72,6.64,22.71,22.71,0,0,1,1.32,7.62,22.18,22.18,0,0,1-2.92,11,18.34,18.34,0,0,1-8.77,7.84,21.55,21.55,0,0,1,11.06,7.17Q886.49,127.34,886.48,135.93ZM839.62,94.45v12.49h15.24a7.37,7.37,0,0,0,4.18-1.26q1.89-1.26,1.89-5c0-2.22-.53-3.8-1.6-4.76a5.51,5.51,0,0,0-3.78-1.43Zm24.18,36.89a7.73,7.73,0,0,0-1.61-5,5,5,0,0,0-4.12-2H839.62V138h17.65a6.63,6.63,0,0,0,4.64-1.72A6.32,6.32,0,0,0,863.8,131.34Z" fill="#fff"/><path d="M896.34,156.78V75.43h37.35a24.75,24.75,0,0,1,11,2.46,28.67,28.67,0,0,1,8.65,6.42,29.71,29.71,0,0,1,5.67,9,27.07,27.07,0,0,1,2.06,10.26A29,29,0,0,1,958,116.85a27,27,0,0,1-8.59,10l17.18,29.9h-25.2L927,131.8h-8.36v25Zm22.34-44.46h14.09a4.93,4.93,0,0,0,3.84-2.29,10.25,10.25,0,0,0,1.78-6.41q0-4.25-2.06-6.48a5.78,5.78,0,0,0-4.13-2.23H918.68Z" fill="#fff"/><path d="M994.76,75.43h20.39l28.19,81.35h-22.69l-4.92-15.93H994.07l-4.81,15.93h-22.8ZM1012.18,126,1005,100.75,997.39,126Z" fill="#fff"/></g></g></svg>