<svg xmlns="http://www.w3.org/2000/svg" viewBox="0 0 1008.62 697.75"><title>INTEGRAOBRARecurso 8</title><g id="Capa_2" data-name="Capa 2"><g id="Capa_1-2" data-name="Capa 1"><path d="M0,696.89V595.62H27.82V696.89Z" fill="#fff"/><path d="M73,647.11v49.78H45.22V595.62H66.9l40.65,51.49V595.62h27.82V696.89H113.26Z" fill="#fff"/><path d="M231.65,619.87h-29.1v77H174.73v-77H145.49V595.62h86.16Z" fill="#fff"/><path d="M314,672.64v24.25H241.78V595.62h70.89v24.25H269.59v14.26h36.8v22.54h-36.8v16Z" fill="#fff"/><path d="M394.12,688.48a37.67,37.67,0,0,1-25,9.13,51.45,51.45,0,0,1-18.82-3.5,44.82,44.82,0,0,1-15.69-10.2,49.3,49.3,0,0,1-10.7-16.4,57.54,57.54,0,0,1-4-22.11,49.49,49.49,0,0,1,15-35.88,51.85,51.85,0,0,1,16.48-10.69,52.91,52.91,0,0,1,20.47-3.93A56.31,56.31,0,0,1,385,596.4a46.68,46.68,0,0,1,11.62,4.42,45.66,45.66,0,0,1,9.63,7,35.62,35.62,0,0,1,7,9.2l-20.68,15.84a23.25,23.25,0,0,0-9-9.63,24,24,0,0,0-12.69-3.64,20.72,20.72,0,0,0-9.13,2,21.18,21.18,0,0,0-7.13,5.56,26.64,26.64,0,0,0-4.71,8.49,35,35,0,0,0,0,21.61,25.11,25.11,0,0,0,4.78,8.34A21.18,21.18,0,0,0,362,671a23,23,0,0,0,9.56,1.93q12.12,0,21.4-10H375.43V643h41.65v53.92h-23Z" fill="#fff"/><path d="M430.78,696.89V595.62h46.5A30.81,30.81,0,0,1,491,598.68a35.52,35.52,0,0,1,10.77,8,37.2,37.2,0,0,1,7.06,11.27,33.85,33.85,0,0,1,2.57,12.77,36,36,0,0,1-3.85,16.47,33.61,33.61,0,0,1-10.7,12.48l21.4,37.23H486.84L469,665.8H458.59v31.09Zm27.81-55.34h17.55q2.57,0,4.78-2.86t2.21-8q0-5.28-2.57-8.06c-1.71-1.86-3.42-2.78-5.14-2.78H458.59Z" fill="#fff"/><path d="M553.31,595.62H578.7l35.09,101.27H585.54l-6.13-19.82h-27l-6,19.82H518.07ZM575,658.52l-9-31.38-9.41,31.38Z" fill="#fff"/><path d="M663.71,697.75a48.71,48.71,0,0,1-21-4.42,52,52,0,0,1-16.12-11.63,52.57,52.57,0,0,1-10.41-16.47,51.1,51.1,0,0,1-3.71-19.12,49.94,49.94,0,0,1,3.85-19.26,51.24,51.24,0,0,1,10.77-16.33,52.64,52.64,0,0,1,16.41-11.27,50.66,50.66,0,0,1,20.75-4.2,48.71,48.71,0,0,1,21,4.42,51.3,51.3,0,0,1,16.12,11.69,52.41,52.41,0,0,1,10.34,16.55,51.44,51.44,0,0,1,3.64,19,49.37,49.37,0,0,1-3.85,19.19,51.84,51.84,0,0,1-27,27.6A50,50,0,0,1,663.71,697.75Zm-23-51.35a34.47,34.47,0,0,0,1.42,9.91,25.91,25.91,0,0,0,4.28,8.49,21.6,21.6,0,0,0,7.2,6,24.43,24.43,0,0,0,20.76-.07,21,21,0,0,0,7.2-6.14,26.26,26.26,0,0,0,4.14-8.63,36.49,36.49,0,0,0,1.35-9.84,34.52,34.52,0,0,0-1.42-9.91,24.42,24.42,0,0,0-4.35-8.42A23.47,23.47,0,0,0,653.51,622a21.21,21.21,0,0,0-7.2,6.06,25.64,25.64,0,0,0-4.21,8.56A35.72,35.72,0,0,0,640.75,646.4Z" fill="#fff"/><path d="M813.34,670.93a22.11,22.11,0,0,1-10.7,19.83A36.71,36.71,0,0,1,791,695.39a63.58,63.58,0,0,1-14,1.5H727.19V595.62H786a20,20,0,0,1,9.55,2.28,23.74,23.74,0,0,1,7.28,5.92,27.12,27.12,0,0,1,4.63,8.27,28.12,28.12,0,0,1,1.64,9.49,27.52,27.52,0,0,1-3.63,13.62A22.9,22.9,0,0,1,794.51,645a26.77,26.77,0,0,1,13.77,8.92Q813.34,660.24,813.34,670.93ZM755,619.29v15.55h19a9.17,9.17,0,0,0,5.21-1.57q2.36-1.56,2.35-6.27,0-4.14-2-5.92a6.87,6.87,0,0,0-4.71-1.79Zm30.1,45.94a9.64,9.64,0,0,0-2-6.21,6.29,6.29,0,0,0-5.13-2.5H755v17h22a8.27,8.27,0,0,0,5.78-2.14A7.86,7.86,0,0,0,785.1,665.23Z" fill="#fff"/><path d="M825.61,696.89V595.62h46.5a30.81,30.81,0,0,1,13.69,3.06,35.52,35.52,0,0,1,10.77,8,37.2,37.2,0,0,1,7.06,11.27,33.66,33.66,0,0,1,2.57,12.77,36,36,0,0,1-3.85,16.47,33.52,33.52,0,0,1-10.7,12.48l21.4,37.23H881.67L863.84,665.8H853.42v31.09Zm27.81-55.34H871q2.56,0,4.78-2.86t2.21-8q0-5.28-2.57-8.06c-1.71-1.86-3.42-2.78-5.13-2.78H853.42Z" fill="#fff"/><path d="M948.14,595.62h25.39l35.09,101.27H980.37l-6.13-19.82h-27l-6,19.82H912.9Zm21.68,62.9-9-31.38-9.41,31.38Z" fill="#fff"/><path d="M519.63,414.65a27.45,27.45,0,0,1-27.44,0L385.24,352.9l0,0L271.14,287v96.74a27.44,27.44,0,0,0,13.72,23.76L490.59,526.31a27.45,27.45,0,0,0,27.44,0l95.32-55V360.54Z" fill="#fff"/><path d="M737.47,146.22a27.44,27.44,0,0,0-13.72-23.77L632.92,70l-100,57.76,93.7,54.1a27.45,27.45,0,0,1,13.73,23.76V455.71l83.44-48.18a27.44,27.44,0,0,0,13.72-23.76Z" fill="#fff"/><path d="M371.51,205.63a27.45,27.45,0,0,1,13.73-23.76l107-61.75.21-.11L606,54.44,518,3.68a27.4,27.4,0,0,0-27.44,0L284.86,122.45a27.44,27.44,0,0,0-13.72,23.77V255.9l100.37,58Z" fill="#fff"/><path d="M519.63,381.88l14.21-8.2V202.15c0-8.29-2.75-15-6.14-15H480.92c-3.39,0-6.15,6.73-6.15,15V371.83l17.42,10.05A27.4,27.4,0,0,0,519.63,381.88Z" fill="#fff"/></g></g></svg>